<svg
    viewBox="0 0 2173 514"
    fill="none"
    xmlns="http://www.w3.org/2000/svg"
  >
    <rect x="109" y="208" width="22" height="89" rx="11" fill="#1A1C26" />
    <rect
      x="512.616"
      y="218.601"
      width="27"
      height="46.2505"
      rx="13.5"
      fill="#1A1C26"
    />
    <rect
      x="70.616"
      y="218.601"
      width="27"
      height="46.2505"
      rx="13.5"
      fill="#1A1C26"
    />
    <rect x="242" y="350" width="27" height="48" rx="13.5" fill="#1A1C26" />
    <rect x="341" y="350" width="27" height="48" rx="13.5" fill="#1A1C26" />
    <rect x="341" y="91" width="27" height="48" rx="13.5" fill="#1A1C26" />
    <rect x="242" y="91" width="27" height="48" rx="13.5" fill="#1A1C26" />
    <rect x="143" y="188" width="22" height="134" rx="11" fill="#1A1C26" />
    <rect x="244" y="204" width="22" height="133" rx="11" fill="#1A1C26" />
    <rect x="345" y="168" width="22" height="169" rx="11" fill="#1A1C26" />
    <rect x="177" y="164" width="22" height="182" rx="11" fill="#1A1C26" />
    <rect x="210" y="134" width="22" height="236" rx="11" fill="#1A1C26" />
    <rect
      width="22"
      height="89"
      rx="11"
      transform="matrix(-1 0 0 1 501 208)"
      fill="#1A1C26"
    />
    <rect
      width="22"
      height="134"
      rx="11"
      transform="matrix(-1 0 0 1 467 188)"
      fill="#1A1C26"
    />
    <rect
      width="22"
      height="182"
      rx="11"
      transform="matrix(-1 0 0 1 433 164)"
      fill="#1A1C26"
    />
    <rect
      width="22"
      height="236"
      rx="11"
      transform="matrix(-1 0 0 1 400 134)"
      fill="#1A1C26"
    />
    <rect
      width="22"
      height="220"
      rx="11"
      transform="matrix(-1 0 0 1 299 142)"
      fill="#1A1C26"
    />
    <rect
      width="21.1869"
      height="333.389"
      rx="10.5934"
      transform="matrix(-1 0 0 1 332.563 85.6309)"
      fill="#1A1C26"
    />
    <path
      fillRule="evenodd"
      clipRule="evenodd"
      d="M6.94183 252.27C-6.62199 282.227 2.32856 316.765 33.7935 340.674L227.744 488.049C271.718 521.463 343.014 521.463 386.987 488.049L580.438 341.054C611.903 317.145 620.854 282.606 607.29 252.65L355.935 443.645C329.111 464.027 285.621 464.027 258.797 443.645L6.94183 252.27Z"
      fill="#1A1C26"
    />
    <rect x="0.615967" y="234.173" width="42" height="46" fill="#1A1C26" />
    <rect x="571.616" y="234.173" width="42" height="45" fill="#1A1C26" />
    <path
      fillRule="evenodd"
      clipRule="evenodd"
      d="M53.7466 252.713C57.021 245.942 62.2352 239.591 69.3889 234.155L257.163 91.4733C283.547 71.425 326.324 71.425 352.709 91.4733L542.369 235.589C548.9 240.552 553.815 246.278 557.113 252.389C567.137 233.812 562.222 211.674 542.369 196.589L352.709 52.4733C326.324 32.4249 283.547 32.4249 257.163 52.4733L68.0723 196.155C47.9489 211.446 43.1737 233.983 53.7466 252.713Z"
      fill="#1A1C26"
    />
    <path
      fillRule="evenodd"
      clipRule="evenodd"
      d="M33.7935 172.056C-10.1803 205.47 -10.1803 259.644 33.7935 293.058L227.744 440.434C271.718 473.848 343.014 473.848 386.987 440.434L580.438 293.438C624.412 260.024 624.412 205.85 580.438 172.436L386.488 25.0604C342.514 -8.35347 271.218 -8.35348 227.244 25.0604L33.7935 172.056ZM69.3889 197.155C43.0047 217.203 43.0047 249.708 69.389 269.757L259.049 413.872C285.434 433.92 328.211 433.92 354.595 413.872L542.369 271.19C568.753 251.142 568.753 218.637 542.369 198.589L352.709 54.4733C326.324 34.425 283.547 34.425 257.163 54.4733L69.3889 197.155Z"
      fill="white"
    />
    <ellipse cx="84.116" cy="231.609" rx="13.5" ry="13.008" fill="white" />
    <ellipse
      cx="13.5"
      cy="13.008"
      rx="13.5"
      ry="13.008"
      transform="matrix(-1 0 0 1 539.616 218.601)"
      fill="white"
    />
    <circle
      cx="13.5"
      cy="13.5"
      r="13.5"
      transform="matrix(-1 0 0 1 368 91)"
      fill="white"
    />
    <circle
      cx="13.5"
      cy="13.5"
      r="13.5"
      transform="matrix(-1 0 0 1 269 90)"
      fill="white"
    />
    <circle
      cx="13.5"
      cy="13.5"
      r="13.5"
      transform="matrix(-1 0 0 1 368 350)"
      fill="white"
    />
    <circle
      cx="13.5"
      cy="13.5"
      r="13.5"
      transform="matrix(-1 0 0 1 269 350)"
      fill="white"
    />
    <rect x="109" y="188" width="22" height="88" rx="11" fill="white" />
    <rect x="143" y="164" width="22" height="138" rx="11" fill="white" />
    <rect x="244" y="156" width="22" height="160" rx="11" fill="white" />
    <rect x="345" y="156" width="22" height="161" rx="11" fill="white" />
    <rect x="177" y="137" width="22" height="188" rx="11" fill="white" />
    <rect x="210" y="114" width="22" height="236" rx="11" fill="white" />
    <rect
      width="22"
      height="88"
      rx="11"
      transform="matrix(-1 0 0 1 501 188)"
      fill="white"
    />
    <rect
      width="22"
      height="138"
      rx="11"
      transform="matrix(-1 0 0 1 467 164)"
      fill="white"
    />
    <rect
      width="22"
      height="188"
      rx="11"
      transform="matrix(-1 0 0 1 433 137)"
      fill="white"
    />
    <rect
      width="22"
      height="236"
      rx="11"
      transform="matrix(-1 0 0 1 400 114)"
      fill="white"
    />
    <rect
      width="22"
      height="220"
      rx="11"
      transform="matrix(-1 0 0 1 299 122)"
      fill="white"
    />
    <rect
      width="22"
      height="334"
      rx="11"
      transform="matrix(-1 0 0 1 333 65)"
      fill="white"
    />
    <mask
      id="mask0_8_379"
      style={{ maskType: 'alpha' }}
      maskUnits="userSpaceOnUse"
      x="0"
      y="0"
      width="614"
      height="466"
    >
      <path
        fillRule="evenodd"
        clipRule="evenodd"
        d="M53.7466 252.713C57.021 245.942 62.2352 239.591 69.3889 234.155L257.163 91.4733C283.547 71.425 326.324 71.425 352.709 91.4733L542.369 235.589C548.9 240.552 553.815 246.278 557.113 252.389C567.137 233.812 562.222 211.674 542.369 196.589L352.709 52.4733C326.324 32.4249 283.547 32.4249 257.163 52.4733L68.0723 196.155C47.9489 211.446 43.1737 233.983 53.7466 252.713Z"
        fill="#1A1C26"
      />
      <path
        fillRule="evenodd"
        clipRule="evenodd"
        d="M33.7935 172.056C-10.1803 205.47 -10.1803 259.644 33.7935 293.058L227.744 440.434C271.718 473.848 343.014 473.848 386.987 440.434L580.438 293.438C624.412 260.024 624.412 205.85 580.438 172.436L386.488 25.0604C342.514 -8.35347 271.218 -8.35348 227.244 25.0604L33.7935 172.056ZM69.3889 197.155C43.0047 217.203 43.0047 249.708 69.389 269.757L259.049 413.872C285.434 433.92 328.211 433.92 354.595 413.872L542.369 271.19C568.753 251.142 568.753 218.637 542.369 198.589L352.709 54.4733C326.324 34.425 283.547 34.425 257.163 54.4733L69.3889 197.155Z"
        fill="white"
      />
      <ellipse cx="84.116" cy="231.609" rx="13.5" ry="13.008" fill="white" />
      <ellipse
        cx="13.5"
        cy="13.008"
        rx="13.5"
        ry="13.008"
        transform="matrix(-1 0 0 1 539.616 218.601)"
        fill="white"
      />
      <circle
        cx="13.5"
        cy="13.5"
        r="13.5"
        transform="matrix(-1 0 0 1 368 91)"
        fill="white"
      />
      <circle
        cx="13.5"
        cy="13.5"
        r="13.5"
        transform="matrix(-1 0 0 1 269 90)"
        fill="white"
      />
      <circle
        cx="13.5"
        cy="13.5"
        r="13.5"
        transform="matrix(-1 0 0 1 368 350)"
        fill="white"
      />
      <circle
        cx="13.5"
        cy="13.5"
        r="13.5"
        transform="matrix(-1 0 0 1 269 350)"
        fill="white"
      />
      <rect x="109" y="188" width="22" height="88" rx="11" fill="white" />
      <rect x="143" y="164" width="22" height="138" rx="11" fill="white" />
      <rect x="244" y="156" width="22" height="160" rx="11" fill="white" />
      <rect x="345" y="156" width="22" height="161" rx="11" fill="white" />
      <rect x="177" y="137" width="22" height="188" rx="11" fill="white" />
      <rect x="210" y="114" width="22" height="236" rx="11" fill="white" />
      <rect
        width="22"
        height="88"
        rx="11"
        transform="matrix(-1 0 0 1 501 188)"
        fill="white"
      />
      <rect
        width="22"
        height="138"
        rx="11"
        transform="matrix(-1 0 0 1 467 164)"
        fill="white"
      />
      <rect
        width="22"
        height="188"
        rx="11"
        transform="matrix(-1 0 0 1 433 137)"
        fill="white"
      />
      <rect
        width="22"
        height="236"
        rx="11"
        transform="matrix(-1 0 0 1 400 114)"
        fill="white"
      />
      <rect
        width="22"
        height="220"
        rx="11"
        transform="matrix(-1 0 0 1 299 122)"
        fill="white"
      />
      <rect
        width="22"
        height="334"
        rx="11"
        transform="matrix(-1 0 0 1 333 65)"
        fill="white"
      />
    </mask>
    <g mask="url(#mask0_8_379)">
      <g opacity="0.8">
        <ellipse
          cx="479.5"
          cy="383"
          rx="480.5"
          ry="391"
          fill="url(#paint0_radial_8_379)"
        />
        <ellipse
          cx="414.5"
          cy="315"
          rx="464.5"
          ry="330"
          fill="url(#paint1_radial_8_379)"
        />
        <ellipse
          cx="76"
          cy="168.5"
          rx="511"
          ry="319.5"
          fill="url(#paint2_radial_8_379)"
          fillOpacity="0.6"
        />
      </g>
    </g>
    <g filter="url(#filter0_d_8_379)">
      <path
        d="M2172.94 350H2150.44V177.8L2082.94 294.8L2075.14 294.5L2007.64 178.1V350H1985.44V140H2010.64L2079.34 255.5L2150.44 140H2172.94V350Z"
        fill="white"
      />
    </g>
    <g filter="url(#filter1_d_8_379)">
      <path
        d="M1922.72 332C1910.52 345.2 1892.62 351.8 1869.02 351.8C1845.42 351.8 1827.42 345.2 1815.02 332C1802.82 318.6 1796.72 298.8 1796.72 272.6V140H1819.52V276.2C1819.52 294 1823.72 307.8 1832.12 317.6C1840.72 327.4 1852.82 332.3 1868.42 332.3C1884.22 332.3 1896.52 327.5 1905.32 317.9C1914.12 308.1 1918.52 294.2 1918.52 276.2V140H1941.32V272.6C1941.32 298.8 1935.12 318.6 1922.72 332Z"
        fill="white"
      />
    </g>
    <g filter="url(#filter2_d_8_379)">
      <path d="M1742.17 350H1719.67V140H1742.17V350Z" fill="white" />
    </g>
    <g filter="url(#filter3_d_8_379)">
      <path
        d="M1690.37 350H1577.87V140H1600.37V330.5H1690.37V350Z"
        fill="white"
      />
    </g>
    <g filter="url(#filter4_d_8_379)">
      <path
        d="M1546.64 350H1521.44L1500.44 283.7H1425.14L1404.44 350H1380.74L1449.74 140H1477.04L1546.64 350ZM1495.34 264.2L1463.24 162.8L1430.84 264.2H1495.34Z"
        fill="white"
      />
    </g>
    <g filter="url(#filter5_d_8_379)">
      <path
        d="M1349.63 350.3H1325.03L1223.93 182V350H1200.53V140H1223.93L1327.13 314.6V140H1349.63V350.3Z"
        fill="white"
      />
    </g>
    <g filter="url(#filter6_d_8_379)">
      <path
        d="M1087.89 351.8C1058.89 351.8 1035.79 342 1018.59 322.4C1001.59 302.8 993.085 276.7 993.085 244.1C993.085 211.3 1001.19 185.3 1017.39 166.1C1033.59 146.7 1056.19 137 1085.19 137C1103.59 137 1122.29 140.6 1141.29 147.8L1135.89 166.4C1129.09 163.6 1120.19 161.3 1109.19 159.5C1098.19 157.5 1089.69 156.5 1083.69 156.5C1062.69 156.5 1046.09 164.2 1033.89 179.6C1021.69 195 1015.59 215.8 1015.59 242C1015.59 268.2 1021.99 289.8 1034.79 306.8C1047.79 323.8 1064.39 332.3 1084.59 332.3C1098.79 332.3 1112.19 330.3 1124.79 326.3V263H1080.99V243.5H1147.29V335.6C1128.49 346.4 1108.69 351.8 1087.89 351.8Z"
        fill="white"
      />
    </g>
    <g filter="url(#filter7_d_8_379)">
      <path d="M952.034 350H929.534V140H952.034V350Z" fill="white" />
    </g>
    <g filter="url(#filter8_d_8_379)">
      <path
        d="M869.9 147.5L865.1 167.6L847.7 162.5C835.3 159.5 824.6 158 815.6 158C792 158 780.2 168.5 780.2 189.5C780.2 198.7 783.8 206.3 791 212.3C798.2 218.1 806.9 222.8 817.1 226.4C827.5 229.8 837.8 233.6 848 237.8C858.4 241.8 867.2 248.1 874.4 256.7C881.6 265.1 885.2 275.8 885.2 288.8C885.2 308.6 879.1 324.1 866.9 335.3C854.7 346.3 837.4 351.8 815 351.8C803.8 351.8 792.5 350.2 781.1 347C769.9 343.6 760.7 339.7 753.5 335.3L761 318.2C779.2 326.6 796.4 330.8 812.6 330.8C829 330.8 841.4 327.5 849.8 320.9C858.4 314.3 862.7 304.7 862.7 292.1C862.7 279.3 855.8 269.3 842 262.1C835.8 258.9 828.9 255.9 821.3 253.1C813.9 250.3 806.4 247.3 798.8 244.1C791.4 240.7 784.6 236.9 778.4 232.7C772.4 228.5 767.4 222.8 763.4 215.6C759.6 208.4 757.7 200 757.7 190.4C757.7 173.2 762.8 160 773 150.8C783.4 141.6 797.3 137 814.7 137C832.1 137 850.5 140.5 869.9 147.5Z"
        fill="white"
      />
    </g>
    <mask
      id="mask1_8_379"
      style={{ maskType: 'alpha' }}
      maskUnits="userSpaceOnUse"
      x="753"
      y="137"
      width="1420"
      height="215"
    >
      <path
        d="M2172.94 350H2150.44V177.8L2082.94 294.8L2075.14 294.5L2007.64 178.1V350H1985.44V140H2010.64L2079.34 255.5L2150.44 140H2172.94V350Z"
        fill="white"
      />
      <path
        d="M1922.72 332C1910.52 345.2 1892.62 351.8 1869.02 351.8C1845.42 351.8 1827.42 345.2 1815.02 332C1802.82 318.6 1796.72 298.8 1796.72 272.6V140H1819.52V276.2C1819.52 294 1823.72 307.8 1832.12 317.6C1840.72 327.4 1852.82 332.3 1868.42 332.3C1884.22 332.3 1896.52 327.5 1905.32 317.9C1914.12 308.1 1918.52 294.2 1918.52 276.2V140H1941.32V272.6C1941.32 298.8 1935.12 318.6 1922.72 332Z"
        fill="white"
      />
      <path d="M1742.17 350H1719.67V140H1742.17V350Z" fill="white" />
      <path
        d="M1690.37 350H1577.87V140H1600.37V330.5H1690.37V350Z"
        fill="white"
      />
      <path
        d="M1546.64 350H1521.44L1500.44 283.7H1425.14L1404.44 350H1380.74L1449.74 140H1477.04L1546.64 350ZM1495.34 264.2L1463.24 162.8L1430.84 264.2H1495.34Z"
        fill="white"
      />
      <path
        d="M1349.63 350.3H1325.03L1223.93 182V350H1200.53V140H1223.93L1327.13 314.6V140H1349.63V350.3Z"
        fill="white"
      />
      <path
        d="M1087.89 351.8C1058.89 351.8 1035.79 342 1018.59 322.4C1001.59 302.8 993.085 276.7 993.085 244.1C993.085 211.3 1001.19 185.3 1017.39 166.1C1033.59 146.7 1056.19 137 1085.19 137C1103.59 137 1122.29 140.6 1141.29 147.8L1135.89 166.4C1129.09 163.6 1120.19 161.3 1109.19 159.5C1098.19 157.5 1089.69 156.5 1083.69 156.5C1062.69 156.5 1046.09 164.2 1033.89 179.6C1021.69 195 1015.59 215.8 1015.59 242C1015.59 268.2 1021.99 289.8 1034.79 306.8C1047.79 323.8 1064.39 332.3 1084.59 332.3C1098.79 332.3 1112.19 330.3 1124.79 326.3V263H1080.99V243.5H1147.29V335.6C1128.49 346.4 1108.69 351.8 1087.89 351.8Z"
        fill="white"
      />
      <path d="M952.034 350H929.534V140H952.034V350Z" fill="white" />
      <path
        d="M869.9 147.5L865.1 167.6L847.7 162.5C835.3 159.5 824.6 158 815.6 158C792 158 780.2 168.5 780.2 189.5C780.2 198.7 783.8 206.3 791 212.3C798.2 218.1 806.9 222.8 817.1 226.4C827.5 229.8 837.8 233.6 848 237.8C858.4 241.8 867.2 248.1 874.4 256.7C881.6 265.1 885.2 275.8 885.2 288.8C885.2 308.6 879.1 324.1 866.9 335.3C854.7 346.3 837.4 351.8 815 351.8C803.8 351.8 792.5 350.2 781.1 347C769.9 343.6 760.7 339.7 753.5 335.3L761 318.2C779.2 326.6 796.4 330.8 812.6 330.8C829 330.8 841.4 327.5 849.8 320.9C858.4 314.3 862.7 304.7 862.7 292.1C862.7 279.3 855.8 269.3 842 262.1C835.8 258.9 828.9 255.9 821.3 253.1C813.9 250.3 806.4 247.3 798.8 244.1C791.4 240.7 784.6 236.9 778.4 232.7C772.4 228.5 767.4 222.8 763.4 215.6C759.6 208.4 757.7 200 757.7 190.4C757.7 173.2 762.8 160 773 150.8C783.4 141.6 797.3 137 814.7 137C832.1 137 850.5 140.5 869.9 147.5Z"
        fill="white"
      />
    </mask>
    <g mask="url(#mask1_8_379)">
      <g opacity="0.8">
        <ellipse
          cx="1118.67"
          cy="456"
          rx="919.667"
          ry="391"
          transform="rotate(-180 1118.67 456)"
          fill="url(#paint3_radial_8_379)"
          fillOpacity="0.75"
        />
        <ellipse
          cx="1243.08"
          cy="524"
          rx="889.043"
          ry="330"
          transform="rotate(-180 1243.08 524)"
          fill="url(#paint4_radial_8_379)"
          fillOpacity="0.8"
        />
        <ellipse
          cx="1919.04"
          cy="102.5"
          rx="978.043"
          ry="319.5"
          transform="rotate(-180 1919.04 102.5)"
          fill="url(#paint5_radial_8_379)"
          fillOpacity="0.6"
        />
      </g>
    </g>
    <defs>
      <filter
        id="filter0_d_8_379"
        x="1985.44"
        y="140"
        width="187.5"
        height="230"
        filterUnits="userSpaceOnUse"
        colorInterpolationFilters="sRGB"
      >
        <feFlood floodOpacity="0" result="BackgroundImageFix" />
        <feColorMatrix
          in="SourceAlpha"
          type="matrix"
          values="0 0 0 0 0 0 0 0 0 0 0 0 0 0 0 0 0 0 127 0"
          result="hardAlpha"
        />
        <feOffset dy="20" />
        <feComposite in2="hardAlpha" operator="out" />
        <feColorMatrix
          type="matrix"
          values="0 0 0 0 0.101961 0 0 0 0 0.109804 0 0 0 0 0.14902 0 0 0 1 0"
        />
        <feBlend
          mode="normal"
          in2="BackgroundImageFix"
          result="effect1_dropShadow_8_379"
        />
        <feBlend
          mode="normal"
          in="SourceGraphic"
          in2="effect1_dropShadow_8_379"
          result="shape"
        />
      </filter>
      <filter
        id="filter1_d_8_379"
        x="1796.72"
        y="140"
        width="144.6"
        height="231.8"
        filterUnits="userSpaceOnUse"
        colorInterpolationFilters="sRGB"
      >
        <feFlood floodOpacity="0" result="BackgroundImageFix" />
        <feColorMatrix
          in="SourceAlpha"
          type="matrix"
          values="0 0 0 0 0 0 0 0 0 0 0 0 0 0 0 0 0 0 127 0"
          result="hardAlpha"
        />
        <feOffset dy="20" />
        <feComposite in2="hardAlpha" operator="out" />
        <feColorMatrix
          type="matrix"
          values="0 0 0 0 0.101961 0 0 0 0 0.109804 0 0 0 0 0.14902 0 0 0 1 0"
        />
        <feBlend
          mode="normal"
          in2="BackgroundImageFix"
          result="effect1_dropShadow_8_379"
        />
        <feBlend
          mode="normal"
          in="SourceGraphic"
          in2="effect1_dropShadow_8_379"
          result="shape"
        />
      </filter>
      <filter
        id="filter2_d_8_379"
        x="1719.67"
        y="140"
        width="22.5"
        height="230"
        filterUnits="userSpaceOnUse"
        colorInterpolationFilters="sRGB"
      >
        <feFlood floodOpacity="0" result="BackgroundImageFix" />
        <feColorMatrix
          in="SourceAlpha"
          type="matrix"
          values="0 0 0 0 0 0 0 0 0 0 0 0 0 0 0 0 0 0 127 0"
          result="hardAlpha"
        />
        <feOffset dy="20" />
        <feComposite in2="hardAlpha" operator="out" />
        <feColorMatrix
          type="matrix"
          values="0 0 0 0 0.101961 0 0 0 0 0.109804 0 0 0 0 0.14902 0 0 0 1 0"
        />
        <feBlend
          mode="normal"
          in2="BackgroundImageFix"
          result="effect1_dropShadow_8_379"
        />
        <feBlend
          mode="normal"
          in="SourceGraphic"
          in2="effect1_dropShadow_8_379"
          result="shape"
        />
      </filter>
      <filter
        id="filter3_d_8_379"
        x="1577.87"
        y="140"
        width="112.5"
        height="230"
        filterUnits="userSpaceOnUse"
        colorInterpolationFilters="sRGB"
      >
        <feFlood floodOpacity="0" result="BackgroundImageFix" />
        <feColorMatrix
          in="SourceAlpha"
          type="matrix"
          values="0 0 0 0 0 0 0 0 0 0 0 0 0 0 0 0 0 0 127 0"
          result="hardAlpha"
        />
        <feOffset dy="20" />
        <feComposite in2="hardAlpha" operator="out" />
        <feColorMatrix
          type="matrix"
          values="0 0 0 0 0.101961 0 0 0 0 0.109804 0 0 0 0 0.14902 0 0 0 1 0"
        />
        <feBlend
          mode="normal"
          in2="BackgroundImageFix"
          result="effect1_dropShadow_8_379"
        />
        <feBlend
          mode="normal"
          in="SourceGraphic"
          in2="effect1_dropShadow_8_379"
          result="shape"
        />
      </filter>
      <filter
        id="filter4_d_8_379"
        x="1380.74"
        y="140"
        width="165.9"
        height="230"
        filterUnits="userSpaceOnUse"
        colorInterpolationFilters="sRGB"
      >
        <feFlood floodOpacity="0" result="BackgroundImageFix" />
        <feColorMatrix
          in="SourceAlpha"
          type="matrix"
          values="0 0 0 0 0 0 0 0 0 0 0 0 0 0 0 0 0 0 127 0"
          result="hardAlpha"
        />
        <feOffset dy="20" />
        <feComposite in2="hardAlpha" operator="out" />
        <feColorMatrix
          type="matrix"
          values="0 0 0 0 0.101961 0 0 0 0 0.109804 0 0 0 0 0.14902 0 0 0 1 0"
        />
        <feBlend
          mode="normal"
          in2="BackgroundImageFix"
          result="effect1_dropShadow_8_379"
        />
        <feBlend
          mode="normal"
          in="SourceGraphic"
          in2="effect1_dropShadow_8_379"
          result="shape"
        />
      </filter>
      <filter
        id="filter5_d_8_379"
        x="1200.53"
        y="140"
        width="149.1"
        height="230.3"
        filterUnits="userSpaceOnUse"
        colorInterpolationFilters="sRGB"
      >
        <feFlood floodOpacity="0" result="BackgroundImageFix" />
        <feColorMatrix
          in="SourceAlpha"
          type="matrix"
          values="0 0 0 0 0 0 0 0 0 0 0 0 0 0 0 0 0 0 127 0"
          result="hardAlpha"
        />
        <feOffset dy="20" />
        <feComposite in2="hardAlpha" operator="out" />
        <feColorMatrix
          type="matrix"
          values="0 0 0 0 0.101961 0 0 0 0 0.109804 0 0 0 0 0.14902 0 0 0 1 0"
        />
        <feBlend
          mode="normal"
          in2="BackgroundImageFix"
          result="effect1_dropShadow_8_379"
        />
        <feBlend
          mode="normal"
          in="SourceGraphic"
          in2="effect1_dropShadow_8_379"
          result="shape"
        />
      </filter>
      <filter
        id="filter6_d_8_379"
        x="993.085"
        y="137"
        width="154.2"
        height="234.8"
        filterUnits="userSpaceOnUse"
        colorInterpolationFilters="sRGB"
      >
        <feFlood floodOpacity="0" result="BackgroundImageFix" />
        <feColorMatrix
          in="SourceAlpha"
          type="matrix"
          values="0 0 0 0 0 0 0 0 0 0 0 0 0 0 0 0 0 0 127 0"
          result="hardAlpha"
        />
        <feOffset dy="20" />
        <feComposite in2="hardAlpha" operator="out" />
        <feColorMatrix
          type="matrix"
          values="0 0 0 0 0.101961 0 0 0 0 0.109804 0 0 0 0 0.14902 0 0 0 1 0"
        />
        <feBlend
          mode="normal"
          in2="BackgroundImageFix"
          result="effect1_dropShadow_8_379"
        />
        <feBlend
          mode="normal"
          in="SourceGraphic"
          in2="effect1_dropShadow_8_379"
          result="shape"
        />
      </filter>
      <filter
        id="filter7_d_8_379"
        x="929.534"
        y="140"
        width="22.5"
        height="230"
        filterUnits="userSpaceOnUse"
        colorInterpolationFilters="sRGB"
      >
        <feFlood floodOpacity="0" result="BackgroundImageFix" />
        <feColorMatrix
          in="SourceAlpha"
          type="matrix"
          values="0 0 0 0 0 0 0 0 0 0 0 0 0 0 0 0 0 0 127 0"
          result="hardAlpha"
        />
        <feOffset dy="20" />
        <feComposite in2="hardAlpha" operator="out" />
        <feColorMatrix
          type="matrix"
          values="0 0 0 0 0.101961 0 0 0 0 0.109804 0 0 0 0 0.14902 0 0 0 1 0"
        />
        <feBlend
          mode="normal"
          in2="BackgroundImageFix"
          result="effect1_dropShadow_8_379"
        />
        <feBlend
          mode="normal"
          in="SourceGraphic"
          in2="effect1_dropShadow_8_379"
          result="shape"
        />
      </filter>
      <filter
        id="filter8_d_8_379"
        x="753.5"
        y="137"
        width="131.7"
        height="234.8"
        filterUnits="userSpaceOnUse"
        colorInterpolationFilters="sRGB"
      >
        <feFlood floodOpacity="0" result="BackgroundImageFix" />
        <feColorMatrix
          in="SourceAlpha"
          type="matrix"
          values="0 0 0 0 0 0 0 0 0 0 0 0 0 0 0 0 0 0 127 0"
          result="hardAlpha"
        />
        <feOffset dy="20" />
        <feComposite in2="hardAlpha" operator="out" />
        <feColorMatrix
          type="matrix"
          values="0 0 0 0 0.101961 0 0 0 0 0.109804 0 0 0 0 0.14902 0 0 0 1 0"
        />
        <feBlend
          mode="normal"
          in2="BackgroundImageFix"
          result="effect1_dropShadow_8_379"
        />
        <feBlend
          mode="normal"
          in="SourceGraphic"
          in2="effect1_dropShadow_8_379"
          result="shape"
        />
      </filter>
      <radialGradient
        id="paint0_radial_8_379"
        cx="0"
        cy="0"
        r="1"
        gradientUnits="userSpaceOnUse"
        gradientTransform="translate(479.5 383) rotate(90) scale(391 480.5)"
      >
        <stop stopColor="#670FFF" />
        <stop offset="1" stopColor="#737373" stopOpacity="0" />
      </radialGradient>
      <radialGradient
        id="paint1_radial_8_379"
        cx="0"
        cy="0"
        r="1"
        gradientUnits="userSpaceOnUse"
        gradientTransform="translate(414.5 315) rotate(90) scale(330 464.5)"
      >
        <stop stopColor="#6851FE" />
        <stop offset="1" stopColor="#737373" stopOpacity="0" />
      </radialGradient>
      <radialGradient
        id="paint2_radial_8_379"
        cx="0"
        cy="0"
        r="1"
        gradientUnits="userSpaceOnUse"
        gradientTransform="translate(76 168.5) rotate(90) scale(319.5 511)"
      >
        <stop stopColor="#E54EFF" />
        <stop offset="1" stopColor="#737373" stopOpacity="0" />
      </radialGradient>
      <radialGradient
        id="paint3_radial_8_379"
        cx="0"
        cy="0"
        r="1"
        gradientUnits="userSpaceOnUse"
        gradientTransform="translate(1118.67 456) rotate(90) scale(391 919.667)"
      >
        <stop stopColor="#670FFF" />
        <stop offset="1" stopColor="#737373" stopOpacity="0" />
      </radialGradient>
      <radialGradient
        id="paint4_radial_8_379"
        cx="0"
        cy="0"
        r="1"
        gradientUnits="userSpaceOnUse"
        gradientTransform="translate(1243.08 524) rotate(90) scale(330 889.043)"
      >
        <stop stopColor="#6851FE" />
        <stop offset="1" stopColor="#737373" stopOpacity="0" />
      </radialGradient>
      <radialGradient
        id="paint5_radial_8_379"
        cx="0"
        cy="0"
        r="1"
        gradientUnits="userSpaceOnUse"
        gradientTransform="translate(1919.04 102.5) rotate(90) scale(319.5 978.043)"
      >
        <stop stopColor="#E54EFF" />
        <stop offset="1" stopColor="#737373" stopOpacity="0" />
      </radialGradient>
    </defs>
  </svg>