<svg width="614" height="514" viewBox="0 0 614 514" fill="none" xmlns="http://www.w3.org/2000/svg">
<rect x="109" y="208" width="22" height="89" rx="11" fill="#1A1C26"/>
<rect x="512.616" y="218.601" width="27" height="46.2505" rx="13.5" fill="#1A1C26"/>
<rect x="70.616" y="218.601" width="27" height="46.2505" rx="13.5" fill="#1A1C26"/>
<rect x="242" y="350" width="27" height="48" rx="13.5" fill="#1A1C26"/>
<rect x="341" y="350" width="27" height="48" rx="13.5" fill="#1A1C26"/>
<rect x="341" y="91" width="27" height="48" rx="13.5" fill="#1A1C26"/>
<rect x="242" y="91" width="27" height="48" rx="13.5" fill="#1A1C26"/>
<rect x="143" y="188" width="22" height="134" rx="11" fill="#1A1C26"/>
<rect x="244" y="204" width="22" height="133" rx="11" fill="#1A1C26"/>
<rect x="345" y="168" width="22" height="169" rx="11" fill="#1A1C26"/>
<rect x="177" y="164" width="22" height="182" rx="11" fill="#1A1C26"/>
<rect x="210" y="134" width="22" height="236" rx="11" fill="#1A1C26"/>
<rect width="22" height="89" rx="11" transform="matrix(-1 0 0 1 501 208)" fill="#1A1C26"/>
<rect width="22" height="134" rx="11" transform="matrix(-1 0 0 1 467 188)" fill="#1A1C26"/>
<rect width="22" height="182" rx="11" transform="matrix(-1 0 0 1 433 164)" fill="#1A1C26"/>
<rect width="22" height="236" rx="11" transform="matrix(-1 0 0 1 400 134)" fill="#1A1C26"/>
<rect width="22" height="220" rx="11" transform="matrix(-1 0 0 1 299 142)" fill="#1A1C26"/>
<rect width="21.1869" height="333.389" rx="10.5934" transform="matrix(-1 0 0 1 332.563 85.6309)" fill="#1A1C26"/>
<path fillRule="evenodd" clipRule="evenodd" d="M6.94183 252.27C-6.62199 282.227 2.32856 316.765 33.7935 340.674L227.744 488.049C271.718 521.463 343.014 521.463 386.987 488.049L580.438 341.054C611.903 317.145 620.854 282.606 607.29 252.65L355.935 443.645C329.111 464.027 285.621 464.027 258.797 443.645L6.94183 252.27Z" fill="#1A1C26"/>
<rect x="0.615967" y="234.173" width="42" height="46" fill="#1A1C26"/>
<rect x="571.616" y="234.173" width="42" height="45" fill="#1A1C26"/>
<path fillRule="evenodd" clipRule="evenodd" d="M53.7466 252.713C57.021 245.942 62.2352 239.591 69.3889 234.155L257.163 91.4733C283.547 71.425 326.324 71.425 352.709 91.4733L542.369 235.589C548.9 240.552 553.815 246.278 557.113 252.389C567.137 233.812 562.222 211.674 542.369 196.589L352.709 52.4733C326.324 32.4249 283.547 32.4249 257.163 52.4733L68.0723 196.155C47.9489 211.446 43.1737 233.983 53.7466 252.713Z" fill="#1A1C26"/>
<path fillRule="evenodd" clipRule="evenodd" d="M33.7935 172.056C-10.1803 205.47 -10.1803 259.644 33.7935 293.058L227.744 440.434C271.718 473.848 343.014 473.848 386.987 440.434L580.438 293.438C624.412 260.024 624.412 205.85 580.438 172.436L386.488 25.0604C342.514 -8.35347 271.218 -8.35348 227.244 25.0604L33.7935 172.056ZM69.3889 197.155C43.0047 217.203 43.0047 249.708 69.389 269.757L259.049 413.872C285.434 433.92 328.211 433.92 354.595 413.872L542.369 271.19C568.753 251.142 568.753 218.637 542.369 198.589L352.709 54.4733C326.324 34.425 283.547 34.425 257.163 54.4733L69.3889 197.155Z" fill="white"/>
<ellipse cx="84.116" cy="231.609" rx="13.5" ry="13.008" fill="white"/>
<ellipse cx="13.5" cy="13.008" rx="13.5" ry="13.008" transform="matrix(-1 0 0 1 539.616 218.601)" fill="white"/>
<circle cx="13.5" cy="13.5" r="13.5" transform="matrix(-1 0 0 1 368 91)" fill="white"/>
<circle cx="13.5" cy="13.5" r="13.5" transform="matrix(-1 0 0 1 269 90)" fill="white"/>
<circle cx="13.5" cy="13.5" r="13.5" transform="matrix(-1 0 0 1 368 350)" fill="white"/>
<circle cx="13.5" cy="13.5" r="13.5" transform="matrix(-1 0 0 1 269 350)" fill="white"/>
<rect x="109" y="188" width="22" height="88" rx="11" fill="white"/>
<rect x="143" y="164" width="22" height="138" rx="11" fill="white"/>
<rect x="244" y="156" width="22" height="160" rx="11" fill="white"/>
<rect x="345" y="156" width="22" height="161" rx="11" fill="white"/>
<rect x="177" y="137" width="22" height="188" rx="11" fill="white"/>
<rect x="210" y="114" width="22" height="236" rx="11" fill="white"/>
<rect width="22" height="88" rx="11" transform="matrix(-1 0 0 1 501 188)" fill="white"/>
<rect width="22" height="138" rx="11" transform="matrix(-1 0 0 1 467 164)" fill="white"/>
<rect width="22" height="188" rx="11" transform="matrix(-1 0 0 1 433 137)" fill="white"/>
<rect width="22" height="236" rx="11" transform="matrix(-1 0 0 1 400 114)" fill="white"/>
<rect width="22" height="220" rx="11" transform="matrix(-1 0 0 1 299 122)" fill="white"/>
<rect width="22" height="334" rx="11" transform="matrix(-1 0 0 1 333 65)" fill="white"/>
<mask id="mask0_6_376" style="mask-type:alpha" maskUnits="userSpaceOnUse" x="0" y="0" width="614" height="466">
<path fillRule="evenodd" clipRule="evenodd" d="M53.7466 252.713C57.021 245.942 62.2352 239.591 69.3889 234.155L257.163 91.4733C283.547 71.425 326.324 71.425 352.709 91.4733L542.369 235.589C548.9 240.552 553.815 246.278 557.113 252.389C567.137 233.812 562.222 211.674 542.369 196.589L352.709 52.4733C326.324 32.4249 283.547 32.4249 257.163 52.4733L68.0723 196.155C47.9489 211.446 43.1737 233.983 53.7466 252.713Z" fill="#1A1C26"/>
<path fillRule="evenodd" clipRule="evenodd" d="M33.7935 172.056C-10.1803 205.47 -10.1803 259.644 33.7935 293.058L227.744 440.434C271.718 473.848 343.014 473.848 386.987 440.434L580.438 293.438C624.412 260.024 624.412 205.85 580.438 172.436L386.488 25.0604C342.514 -8.35347 271.218 -8.35348 227.244 25.0604L33.7935 172.056ZM69.3889 197.155C43.0047 217.203 43.0047 249.708 69.389 269.757L259.049 413.872C285.434 433.92 328.211 433.92 354.595 413.872L542.369 271.19C568.753 251.142 568.753 218.637 542.369 198.589L352.709 54.4733C326.324 34.425 283.547 34.425 257.163 54.4733L69.3889 197.155Z" fill="white"/>
<ellipse cx="84.116" cy="231.609" rx="13.5" ry="13.008" fill="white"/>
<ellipse cx="13.5" cy="13.008" rx="13.5" ry="13.008" transform="matrix(-1 0 0 1 539.616 218.601)" fill="white"/>
<circle cx="13.5" cy="13.5" r="13.5" transform="matrix(-1 0 0 1 368 91)" fill="white"/>
<circle cx="13.5" cy="13.5" r="13.5" transform="matrix(-1 0 0 1 269 90)" fill="white"/>
<circle cx="13.5" cy="13.5" r="13.5" transform="matrix(-1 0 0 1 368 350)" fill="white"/>
<circle cx="13.5" cy="13.5" r="13.5" transform="matrix(-1 0 0 1 269 350)" fill="white"/>
<rect x="109" y="188" width="22" height="88" rx="11" fill="white"/>
<rect x="143" y="164" width="22" height="138" rx="11" fill="white"/>
<rect x="244" y="156" width="22" height="160" rx="11" fill="white"/>
<rect x="345" y="156" width="22" height="161" rx="11" fill="white"/>
<rect x="177" y="137" width="22" height="188" rx="11" fill="white"/>
<rect x="210" y="114" width="22" height="236" rx="11" fill="white"/>
<rect width="22" height="88" rx="11" transform="matrix(-1 0 0 1 501 188)" fill="white"/>
<rect width="22" height="138" rx="11" transform="matrix(-1 0 0 1 467 164)" fill="white"/>
<rect width="22" height="188" rx="11" transform="matrix(-1 0 0 1 433 137)" fill="white"/>
<rect width="22" height="236" rx="11" transform="matrix(-1 0 0 1 400 114)" fill="white"/>
<rect width="22" height="220" rx="11" transform="matrix(-1 0 0 1 299 122)" fill="white"/>
<rect width="22" height="334" rx="11" transform="matrix(-1 0 0 1 333 65)" fill="white"/>
</mask>
<g mask="url(#mask0_6_376)">
<g opacity="0.8">
<ellipse cx="479.5" cy="383" rx="480.5" ry="391" fill="url(#paint0_radial_6_376)"/>
<ellipse cx="414.5" cy="315" rx="464.5" ry="330" fill="url(#paint1_radial_6_376)"/>
<ellipse cx="76" cy="168.5" rx="511" ry="319.5" fill="url(#paint2_radial_6_376)" fillOpacity="0.72"/>
</g>
</g>
<defs>
<radialGradient id="paint0_radial_6_376" cx="0" cy="0" r="1" gradientUnits="userSpaceOnUse" gradientTransform="translate(479.5 383) rotate(90) scale(391 480.5)">
<stop stopColor="#670FFF"/>
<stop offset="1" stopColor="#737373" stopOpacity="0"/>
</radialGradient>
<radialGradient id="paint1_radial_6_376" cx="0" cy="0" r="1" gradientUnits="userSpaceOnUse" gradientTransform="translate(414.5 315) rotate(90) scale(330 464.5)">
<stop stopColor="#6851FE"/>
<stop offset="1" stopColor="#737373" stopOpacity="0"/>
</radialGradient>
<radialGradient id="paint2_radial_6_376" cx="0" cy="0" r="1" gradientUnits="userSpaceOnUse" gradientTransform="translate(76 168.5) rotate(90) scale(319.5 511)">
<stop stopColor="#E54EFF"/>
<stop offset="1" stopColor="#737373" stopOpacity="0"/>
</radialGradient>
</defs>
</svg>
